 <svg
  width="181"
  height="180"
  viewBox="0 0 181 180"
  fill="none"
  xmlns="http://www.w3.org/2000/svg"
>
  <path
    d="M67.5388 164.3L70.0142 164.878C69.898 165.376 69.897 165.766 70.0113 166.047C70.1189 166.358 70.3728 166.619 70.773 166.833C71.1732 167.046 71.793 167.251 72.6324 167.447C73.614 167.676 74.3552 167.714 74.856 167.561C75.3601 167.393 75.7739 167.002 76.0973 166.388C76.4208 165.773 76.7569 164.719 77.1055 163.225C77.4409 161.789 77.6106 160.741 77.6144 160.081C77.613 159.316 77.4092 158.743 77.0028 158.363C76.6358 158.008 75.9615 157.715 74.9798 157.486C73.6853 157.184 72.8039 157.136 72.3359 157.342C71.938 157.504 71.6593 157.926 71.4999 158.609L69.0246 158.031C69.4031 156.41 70.2148 155.406 71.4597 155.022C72.4153 154.72 73.7039 154.758 75.3257 155.137C77.2036 155.575 78.5285 156.229 79.3005 157.1C79.9643 157.855 80.281 158.844 80.2506 160.067C80.2344 160.843 80.0237 162.099 79.6186 163.834C79.2168 165.556 78.8513 166.768 78.5222 167.471C77.9938 168.578 77.2665 169.316 76.3404 169.685C75.2629 170.123 73.7852 170.124 71.9074 169.685C70.0437 169.25 68.7703 168.6 68.087 167.736C67.3861 166.882 67.2034 165.737 67.5388 164.3Z"
    fill="white"
  />
  <path
    d="M53.7767 146.313L62.4173 151.018L55.4268 163.854L53.1559 162.618L59.0356 151.822L52.6658 148.352L53.7767 146.313Z"
    fill="white"
  />
  <path
    d="M46.4618 140.469L48.4352 142.14L38.9907 153.295L37.0173 151.624L46.4618 140.469Z"
    fill="white"
  />
  <path
    d="M25.3692 132.197L26.8924 134.232C26.4831 134.538 26.2315 134.836 26.1377 135.125C26.0206 135.432 26.0465 135.796 26.2156 136.216C26.3846 136.637 26.7274 137.193 27.2439 137.883C27.8479 138.69 28.3909 139.196 28.8727 139.401C29.3663 139.597 29.9346 139.564 30.5777 139.302C31.2207 139.039 32.1562 138.448 33.3843 137.529C34.5655 136.645 35.3696 135.952 35.7967 135.45C36.2881 134.863 36.5005 134.294 36.4338 133.741C36.3817 133.233 36.0537 132.575 35.4496 131.768C34.653 130.704 34.0094 130.1 33.5186 129.956C33.1097 129.824 32.6246 129.969 32.0632 130.389L30.54 128.354C31.8733 127.356 33.1401 127.11 34.3405 127.617C35.2663 128 36.2282 128.859 37.2261 130.192C38.3816 131.736 38.9749 133.089 39.0059 134.252C39.0283 135.257 38.6344 136.218 37.8242 137.135C37.3124 137.719 36.343 138.545 34.9162 139.613C33.501 140.672 32.4412 141.365 31.7368 141.691C30.6202 142.199 29.5887 142.295 28.6424 141.982C27.5354 141.624 26.4041 140.674 25.2486 139.13C24.1018 137.598 23.545 136.281 23.5782 135.18C23.591 134.075 24.188 133.081 25.3692 132.197Z"
    fill="white"
  />
  <path
    d="M25.6675 107.251L26.9645 110.79L23.5016 118.408L29.0156 116.387L29.9054 118.814L16.1821 123.844L15.2923 121.416L20.8475 119.38L13.1658 115.614L11.9668 112.343L21.454 117.151L25.6675 107.251Z"
    fill="white"
  />
  <path
    d="M17.2616 78.1573C19.0956 78.3145 20.4193 78.5233 21.2327 78.7837C22.3892 79.1468 23.2018 79.7589 23.6705 80.6202C24.2044 81.5751 24.3934 82.9622 24.2374 84.7816C24.0777 86.6447 23.6304 88.0139 22.8955 88.8893C22.2592 89.6412 21.3264 90.089 20.0971 90.2329C19.3265 90.3281 18.046 90.2989 16.2557 90.1454C14.4654 89.9919 13.1987 89.8027 12.4556 89.5777C11.282 89.2424 10.453 88.6509 9.96852 87.8029C9.39216 86.8297 9.18447 85.4044 9.34546 83.5267C9.50646 81.6491 9.94648 80.2792 10.6655 79.4172C11.3018 78.6653 12.2201 78.2162 13.4203 78.0698C14.1909 77.9746 15.4713 78.0038 17.2616 78.1573ZM17.0626 80.7354C15.5925 80.6094 14.5237 80.5911 13.8562 80.6805C13.1135 80.7927 12.5826 81.0844 12.2637 81.5556C11.963 81.9843 11.7689 82.7082 11.6816 83.727C11.5942 84.7459 11.6622 85.4922 11.8855 85.9659C12.1076 86.4541 12.5459 86.8142 13.2004 87.0463C13.8563 87.2638 14.9556 87.4387 16.4985 87.571C17.9831 87.6983 19.0519 87.7166 19.7048 87.626C20.4475 87.5137 20.9778 87.2293 21.2955 86.7727C21.5962 86.3439 21.7902 85.6201 21.8776 84.6013C21.9649 83.5824 21.897 82.8361 21.6736 82.3624C21.4516 81.8742 21.0133 81.514 20.3587 81.282C19.7041 81.0499 18.6054 80.8677 17.0626 80.7354Z"
    fill="white"
  />
  <path
    d="M30.4505 60.9354L29.475 63.4009L17.4817 65.1833L27.2418 69.045L26.355 71.2864L12.7641 65.909L13.7316 63.4639L25.6515 61.6288L15.9728 57.7993L16.8597 55.558L30.4505 60.9354Z"
    fill="white"
  />
  <path
    d="M45.6833 35.0379C46.7068 36.1208 47.1892 37.1523 47.1306 38.1324C47.093 38.7307 46.9118 39.294 46.5869 39.8222C46.2726 40.3404 45.7491 40.9456 45.0166 41.638L44.3477 42.2702L40.4618 45.9428L30.4223 35.3204L34.2126 31.7381C35.2212 30.7848 35.9208 30.1638 36.3113 29.8751C37.113 29.2984 37.8599 29.0146 38.552 29.0238C39.3993 29.027 40.2397 29.4589 41.0731 30.3195C41.7661 31.0314 42.2135 31.6538 42.4155 32.1865C42.6275 32.7299 42.6286 33.2414 42.4187 33.7212C42.9715 33.5404 43.4931 33.55 43.9835 33.7498C44.4845 33.9397 45.0511 34.369 45.6833 35.0379ZM39.51 32.4301C39.0785 31.9735 38.6612 31.7447 38.2582 31.7437C37.9066 31.7544 37.5036 31.9343 37.0494 32.2831C36.8489 32.4325 36.3929 32.8433 35.6816 33.5156L33.866 35.2315L36.4098 37.923L38.3368 36.1017L38.8305 35.6351C39.5312 34.9728 39.939 34.4366 40.054 34.0265C40.203 33.5037 40.0217 32.9715 39.51 32.4301ZM43.8342 36.8458C43.2923 36.2725 42.8249 35.9906 42.4319 36.0002C42.1422 36.0127 41.8708 36.1084 41.6178 36.2873C41.2703 36.5152 40.6878 37.0154 39.8703 37.7881L37.9752 39.5792L40.7296 42.4936L42.6248 40.7025L43.0866 40.266C43.8617 39.5335 44.3211 38.9987 44.465 38.6618C44.5864 38.3862 44.5943 38.1074 44.4886 37.8254C44.3935 37.5333 44.1753 37.2068 43.8342 36.8458Z"
    fill="white"
  />
  <path
    d="M61.9002 21.926C62.6157 23.3485 63.0621 24.2687 63.2394 24.6864C63.8962 26.1875 63.9058 27.5072 63.2682 28.6455C62.7281 29.5875 61.7403 30.4195 60.3046 31.1415C58.6602 31.9685 57.2496 32.2364 56.073 31.9451C54.9813 31.6602 54.0812 30.8946 53.3727 29.6484C53.1431 29.2569 52.6706 28.3499 51.9552 26.9273L48.6866 20.4278L50.9967 19.2661L54.2653 25.7656L54.7871 26.8032C55.2859 27.795 55.6794 28.4638 55.9677 28.8094C56.3543 29.2854 56.7795 29.5458 57.2435 29.5904C57.7532 29.6284 58.4191 29.4407 59.2413 29.0272C60.0505 28.6203 60.5984 28.2139 60.8849 27.8082C61.1453 27.4156 61.2128 26.9483 61.0874 26.4064C60.9885 25.9819 60.7191 25.3325 60.2793 24.4581L59.5902 23.0877L56.3216 16.5882L58.6316 15.4264L61.9002 21.926Z"
    fill="white"
  />
  <path
    d="M75.8491 25.3346L73.3377 25.9499L69.8597 11.7537L72.3711 11.1384L75.8491 25.3346Z"
    fill="white"
  />
  <path
    d="M93.5741 23.5612L83.7416 23.9193L83.2097 9.31295L85.7937 9.21884L86.2411 21.5039L93.4895 21.2399L93.5741 23.5612Z"
    fill="white"
  />
  <path
    d="M113.308 19.7781C112.958 21.2564 112.632 22.3428 112.332 23.0373C112.032 23.7319 111.642 24.3 111.162 24.7416C110.454 25.3843 109.604 25.7382 108.613 25.8033C107.834 25.8587 106.798 25.7329 105.504 25.426L100.217 24.1713L103.591 9.95019L108.858 11.1998C110.322 11.5472 111.408 11.9701 112.115 12.4683C112.798 12.9455 113.292 13.5809 113.6 14.3745C113.845 15.0484 113.932 15.8198 113.861 16.6888C113.81 17.4122 113.625 18.442 113.308 19.7781ZM110.792 19.1811C111.16 17.6318 111.311 16.489 111.246 15.7528C111.191 15.0341 110.905 14.5007 110.387 14.1526C110.008 13.9127 109.279 13.6645 108.199 13.4082L105.533 12.7758L103.226 22.4982L105.913 23.1356C107.007 23.3953 107.77 23.5013 108.202 23.4536C108.804 23.3862 109.289 23.0508 109.657 22.4476C110.046 21.8193 110.425 20.7305 110.792 19.1811Z"
    fill="white"
  />
  <path
    d="M153.658 38.8215L143.944 40.6772L139.381 45.037L137.595 43.1675L142.158 38.8077L144.469 29.2045L146.543 31.375L144.745 38.1846L151.614 36.6826L153.658 38.8215Z"
    fill="white"
  />
  <path
    d="M158.929 61.5644C157.295 62.4123 156.065 62.9437 155.238 63.1587C154.067 63.4703 153.053 63.3876 152.196 62.9104C151.235 62.3891 150.333 61.318 149.492 59.6972C148.631 58.0375 148.276 56.6413 148.429 55.5086C148.565 54.533 149.114 53.6557 150.075 52.8768C150.676 52.3843 151.773 51.7241 153.368 50.8965C154.963 50.0688 156.135 49.5513 156.883 49.3441C158.054 48.9997 159.071 49.0563 159.934 49.5138C160.941 50.0279 161.879 51.1213 162.747 52.794C163.615 54.4667 163.976 55.8595 163.829 56.9725C163.693 57.9481 163.158 58.8186 162.222 59.5841C161.621 60.0767 160.524 60.7368 158.929 61.5644ZM157.718 59.2794C159.028 58.5998 159.941 58.0437 160.457 57.6113C161.025 57.1192 161.317 56.5888 161.335 56.0201C161.36 55.497 161.137 54.7816 160.666 53.874C160.195 52.9663 159.738 52.3721 159.296 52.0912C158.847 51.7974 158.284 51.7275 157.607 51.8814C156.937 52.0483 155.914 52.4884 154.54 53.2017C153.217 53.888 152.304 54.4441 151.801 54.8698C151.233 55.3619 150.937 55.8858 150.913 56.4415C150.888 56.9646 151.111 57.68 151.582 58.5877C152.054 59.4953 152.51 60.0896 152.952 60.3704C153.401 60.6642 153.964 60.7342 154.641 60.5802C155.318 60.4263 156.344 59.9927 157.718 59.2794Z"
    fill="white"
  />
  <path
    d="M164.19 81.7158C162.625 82.0125 161.618 82.1888 161.168 82.2445C159.544 82.4633 158.272 82.1097 157.353 81.1837C156.596 80.4055 156.068 79.227 155.768 77.6482C155.425 75.8397 155.555 74.4099 156.159 73.3586C156.733 72.3873 157.716 71.7324 159.109 71.3938C159.549 71.2807 160.551 71.0757 162.115 70.779L169.263 69.4231L169.745 71.9636L162.597 73.3194L161.456 73.5359C160.365 73.7428 159.614 73.9373 159.203 74.1195C158.639 74.3603 158.271 74.6976 158.101 75.1314C157.924 75.611 157.922 76.3029 158.093 77.2071C158.262 78.097 158.502 78.7354 158.813 79.1224C159.119 79.4808 159.55 79.6741 160.106 79.7026C160.541 79.7241 161.239 79.6436 162.201 79.4612L163.708 79.1754L170.856 77.8195L171.338 80.3599L164.19 81.7158Z"
    fill="white"
  />
  <path
    d="M156.181 103.395L156.499 100.344L160.458 98.2885C161.22 97.8831 161.727 97.5981 161.979 97.4334C162.23 97.2833 162.415 97.1263 162.535 96.9625C162.639 96.8118 162.716 96.6362 162.766 96.4358C162.815 96.2499 162.866 95.9027 162.919 95.3942L162.994 94.6749L157.153 94.0667L157.42 91.4948L171.958 93.0087L171.427 98.1088C171.284 99.4746 171.115 100.47 170.917 101.096C170.627 102.05 170.174 102.73 169.559 103.136C168.848 103.62 167.846 103.795 166.552 103.66C165.39 103.539 164.471 103.201 163.794 102.646C163.039 101.994 162.656 101.088 162.645 99.9262L156.181 103.395ZM166.707 101.12C167.375 101.19 167.873 101.139 168.199 100.967C168.464 100.819 168.651 100.574 168.76 100.233C168.882 99.9074 168.994 99.2581 169.095 98.2846L169.402 95.3422L165.304 94.9155L164.968 98.1412C164.892 98.8677 164.855 99.3705 164.855 99.6496C164.868 99.9448 164.931 100.186 165.044 100.374C165.266 100.779 165.82 101.028 166.707 101.12Z"
    fill="white"
  />
  <path
    d="M144.003 141.879C142.579 140.713 141.605 139.793 141.081 139.118C140.332 138.165 140.008 137.201 140.108 136.225C140.207 135.136 140.835 133.885 141.992 132.472C143.177 131.025 144.32 130.149 145.421 129.842C146.371 129.581 147.393 129.739 148.489 130.315C149.178 130.672 150.218 131.42 151.608 132.558C152.998 133.697 153.936 134.569 154.422 135.175C155.201 136.114 155.55 137.071 155.471 138.044C155.396 139.173 154.762 140.466 153.568 141.924C152.374 143.382 151.237 144.264 150.156 144.568C149.206 144.829 148.195 144.68 147.122 144.123C146.433 143.766 145.393 143.018 144.003 141.879ZM145.624 139.865C146.766 140.8 147.637 141.419 148.238 141.723C148.914 142.05 149.517 142.109 150.046 141.901C150.537 141.717 151.106 141.23 151.754 140.439C152.402 139.647 152.768 138.993 152.851 138.476C152.944 137.948 152.786 137.403 152.377 136.842C151.959 136.292 151.151 135.526 149.953 134.545C148.8 133.601 147.929 132.982 147.339 132.687C146.663 132.36 146.065 132.295 145.544 132.492C145.054 132.676 144.485 133.163 143.837 133.955C143.189 134.746 142.823 135.4 142.74 135.917C142.647 136.445 142.805 136.99 143.214 137.551C143.623 138.113 144.426 138.884 145.624 139.865Z"
    fill="white"
  />
  <path
    d="M125.924 164.096L121.081 149.894L123.388 148.457L132.108 156.864L128.447 145.307L130.735 143.882L141.289 154.529L139.15 155.861L131.268 147.681L134.76 158.594L132.434 160.042L124.162 152.105L128.007 162.799L125.924 164.096Z"
    fill="white"
  />
  <path
    d="M100.497 156.525L103.079 155.922L111.376 164.764L108.99 154.542L111.338 153.994L114.66 168.228L112.099 168.825L103.801 160.074L106.167 170.21L103.82 170.758L100.497 156.525Z"
    fill="white"
  />
</svg>